<?xml version="1.0" encoding="UTF-8" standalone="no"?>
<!-- Created with Inkscape (http://www.inkscape.org/) -->

<svg
   xmlns:osb="http://www.openswatchbook.org/uri/2009/osb"
   xmlns:dc="http://purl.org/dc/elements/1.1/"
   xmlns:cc="http://creativecommons.org/ns#"
   xmlns:rdf="http://www.w3.org/1999/02/22-rdf-syntax-ns#"
   xmlns:svg="http://www.w3.org/2000/svg"
   xmlns="http://www.w3.org/2000/svg"
   xmlns:sodipodi="http://sodipodi.sourceforge.net/DTD/sodipodi-0.dtd"
   xmlns:inkscape="http://www.inkscape.org/namespaces/inkscape"
   width="57mm"
   height="33mm"
   viewBox="0 0 57 33"
   version="1.1"
   id="svg8"
   inkscape:version="0.92.2 (5c3e80d, 2017-08-06)"
   sodipodi:docname="LogoLall.svg">
  <defs
     id="defs2">
    <linearGradient
       id="linearGradient6164"
       osb:paint="solid">
      <stop
         style="stop-color:#000000;stop-opacity:1;"
         offset="0"
         id="stop6162" />
    </linearGradient>
    <linearGradient
       id="linearGradient6112"
       osb:paint="solid">
      <stop
         style="stop-color:#000000;stop-opacity:1;"
         offset="0"
         id="stop6110" />
    </linearGradient>
    <inkscape:perspective
       sodipodi:type="inkscape:persp3d"
       inkscape:vp_x="7.5387931 : 208.79179 : 1"
       inkscape:vp_y="0 : 374.06458 : 0"
       inkscape:vp_z="86.09236 : 208.79179 : 1"
       inkscape:persp3d-origin="46.815576 : 190.27559 : 1"
       id="perspective3699" />
    <inkscape:perspective
       sodipodi:type="inkscape:persp3d"
       inkscape:vp_x="92.97097 : 195.4082 : 1"
       inkscape:vp_y="0 : 339.93543 : 0"
       inkscape:vp_z="5.1153525 : 195.4082 : 1"
       inkscape:persp3d-origin="49.043163 : 178.58139 : 1"
       id="perspective3699-8" />
    <inkscape:perspective
       sodipodi:type="inkscape:persp3d"
       inkscape:vp_x="79.889536 : 189.84128 : 1"
       inkscape:vp_y="0 : 256.48758 : 0"
       inkscape:vp_z="13.600859 : 189.84128 : 1"
       inkscape:persp3d-origin="46.745198 : 177.14515 : 1"
       id="perspective3699-8-2" />
    <inkscape:perspective
       sodipodi:type="inkscape:persp3d"
       inkscape:vp_x="67.083265 : 185.52042 : 1"
       inkscape:vp_y="0 : 162.13703 : 0"
       inkscape:vp_z="25.179288 : 185.52042 : 1"
       inkscape:persp3d-origin="46.131292 : 177.49462 : 1"
       id="perspective3699-8-2-4" />
  </defs>
  <sodipodi:namedview
     id="base"
     pagecolor="#ffffff"
     bordercolor="#666666"
     borderopacity="1.0"
     inkscape:pageopacity="0.0"
     inkscape:pageshadow="2"
     inkscape:zoom="3.959798"
     inkscape:cx="90.132345"
     inkscape:cy="47.555431"
     inkscape:document-units="mm"
     inkscape:current-layer="layer1"
     showgrid="false"
     inkscape:window-width="1920"
     inkscape:window-height="1027"
     inkscape:window-x="-8"
     inkscape:window-y="-8"
     inkscape:window-maximized="1" />
  <metadata
     id="metadata5">
    <rdf:RDF>
      <cc:Work
         rdf:about="">
        <dc:format>image/svg+xml</dc:format>
        <dc:type
           rdf:resource="http://purl.org/dc/dcmitype/StillImage" />
        <dc:title></dc:title>
      </cc:Work>
    </rdf:RDF>
  </metadata>
  <g
     inkscape:label="Capa 1"
     inkscape:groupmode="layer"
     id="layer1"
     transform="translate(0,-264)">
    <path
       style="opacity:1;fill:none;fill-opacity:1;stroke:none;stroke-width:0.26458332"
       d="M 95.25,100.45238 A 40.82143,32.505951 0 0 1 54.42857,132.95833 40.82143,32.505951 0 0 1 13.60714,100.45238 40.82143,32.505951 0 0 1 54.42857,67.946426 40.82143,32.505951 0 0 1 95.25,100.45238 Z"
       id="path6168" />
    <path
       style="opacity:1;fill:none;fill-opacity:1;stroke:none;stroke-width:0.26458332"
       d="m 170.46726,152.80209 a 29.293154,25.891367 0 0 1 -29.29316,25.89137 29.293154,25.891367 0 0 1 -29.29315,-25.89137 29.293154,25.891367 0 0 1 29.29315,-25.89136 29.293154,25.891367 0 0 1 29.29316,25.89136 z"
       id="path6172" />
    <path
       style="opacity:1;fill:#000000;fill-opacity:1;stroke:none;stroke-width:0.16822697;stroke-miterlimit:4;stroke-dasharray:none;paint-order:markers fill stroke"
       id="path6350"
       d="m 11.567189,284.36485 c 0.29038,-0.008 0.57997,0.0217 0.87005,0.0336 0.28983,0.0375 0.58434,0.0509 0.86823,0.12485 0.0818,0.0213 0.41655,0.12585 0.49536,0.15022 0.49914,0.14816 0.9808,0.3443 1.4658,0.53195 0.25908,0.0973 1.09685,0.55368 -0.0326,-0.067 -0.0813,-0.0447 0.15913,0.0953 0.2394,0.14177 0.83434,0.4828 0.73801,0.42754 1.25471,0.71968 0.74722,0.38035 1.52626,0.69183 2.30206,1.00772 1.1023,0.47428 2.15642,1.05516 3.20077,1.64422 -0.0535,-0.0285 -0.21157,-0.11851 -0.16062,-0.0856 1.50621,0.97321 -0.24328,-0.19888 1.20791,0.76352 0.53793,0.35674 1.06351,0.73086 1.58795,1.10694 0.57727,0.44057 1.17621,0.85731 1.71577,1.34507 0.32387,0.29278 0.38702,0.37324 0.67838,0.68552 0.37979,0.43771 0.69776,0.92878 0.94472,1.45272 0.1391,0.30051 0.17113,0.62556 0.18493,0.95171 0.003,0.18638 0.0192,0.37798 -0.0435,0.5577 -0.0199,0.0572 -0.0885,0.18023 -0.11687,0.23314 -0.10635,0.14434 -0.24456,0.31361 -0.43463,0.34538 -0.0245,0.004 -0.0496,-0.003 -0.0744,-0.005 -0.0243,-0.006 -0.0502,-0.007 -0.0729,-0.017 -0.0223,-0.0102 -0.0389,-0.0299 -0.0592,-0.0436 -0.0219,-0.0147 -0.0904,-0.0544 -0.0674,-0.0415 0.24693,0.13862 0.48762,0.28869 0.73924,0.4186 0.0351,0.0181 -0.0591,-0.0526 -0.0861,-0.0814 -0.03,-0.0321 -0.0565,-0.0673 -0.0847,-0.10096 -0.16931,-0.26193 -0.31236,-0.53937 -0.45968,-0.8139 -0.20407,-0.49666 -0.32984,-1.01965 -0.5035,-1.52701 -0.2714,-0.82765 -0.69223,-1.59896 -1.09115,-2.37046 -0.84642,-1.69996 -1.74577,-3.37276 -2.62415,-5.05628 -0.17146,-0.33474 -0.34296,-0.66947 -0.51439,-1.00423 -0.0795,-0.15515 -0.73419,-1.43839 -0.85229,-1.65337 -0.47399,-0.86278 -0.99276,-1.70084 -1.51404,-2.53536 -0.82552,-1.32021 -1.69689,-2.61336 -2.63954,-3.85318 -0.19685,-0.25891 -0.39929,-0.51352 -0.59893,-0.77028 -1.02913,-1.2988 -2.08771,-2.5751 -3.18718,-3.81502 -0.85941,-0.94107 -1.70398,-1.90467 -2.64272,-2.76928 -0.20066,-0.18481 -0.40997,-0.36 -0.61495,-0.54 -0.8798114,-0.76738 -1.8565223,-1.40805 -2.7896123,-2.10565 -0.55671,-0.41165 -1.12677,-0.80267 -1.72989,-1.14353 -1.17005,-0.66126 -0.77395,-0.4665 -1.53024,-0.81515 -0.5185,-0.26702 -1.04062,-0.52869 -1.58471,-0.73977 -0.32644,-0.0957 -0.63551,-0.2211 -0.97037,-0.28382 -0.28193,-0.0451 -0.56816,-0.0471 -0.85295,-0.0501 -0.1519901,-0.004 -0.3161901,-0.003 -0.45265008,0.0763 -0.0535,0.031 -0.16252994,0.13311 -0.20346994,0.1696 -0.22913003,0.21369 -0.34599003,0.4877 -0.41182003,0.7875 -0.0854,0.43877 0.0948,0.83503 0.29117,1.21659 0.25793999,0.40686 0.58961995,0.75193 0.92283005,1.09556 0.26959,0.30834 0.59323,0.55746 0.91823,0.80331 0.91369,0.6897 1.93091,1.22859 2.92407,1.7916 1.53063,0.76544 3.08791,1.47922 4.6533913,2.17038 2.190761,0.90889 4.378941,1.82453 6.583451,2.69972 0,0 -0.61737,-0.4849 -0.61737,-0.4849 v 0 c -2.2018,-0.85797 -4.3786,-1.77773 -6.5601423,-2.68553 -1.59963,-0.71282 -3.18935,-1.45082 -4.74624,-2.25331 0.12331,0.0749 0.50588,0.27314 0.36993,0.22478 -0.15147,-0.0539 -0.27882,-0.16016 -0.4174,-0.24167 -0.46286,-0.27224 -0.92124,-0.55485 -1.3457,-0.88494 -0.31918,-0.24228 -0.64258,-0.48386 -0.91019,-0.7847 -0.14627,-0.15255 -0.30599,-0.29268 -0.44701,-0.45014 -0.17733,-0.19802 -0.33256,-0.41512 -0.4944,-0.6255 -0.1956101,-0.35768 -0.3831901,-0.73258 -0.3035201,-1.15137 0.0556,-0.28199 0.1582701,-0.53974 0.3798201,-0.73456 0.0591,-0.047 0.12228,-0.10448 0.19231,-0.13766 0.13303,-0.063 0.28444,-0.0545 0.42706,-0.053 0.28147,0.004 0.56452,0.01 0.84181,0.0637 0.32264,0.0719 0.63402,0.18848 0.94892,0.28748 0.53132,0.213 1.04411,0.46794 1.5558,0.72386 0.13007,0.0613 0.31947,0.30912 0.3902,0.18393 0.0706,-0.12501 -0.50204,-0.26961 -0.36388,-0.23051 0.16264,0.046 0.29527,0.16475 0.44001,0.25205 0.44916,0.27096 0.86928,0.58161 1.29772,0.88336 0.9411,0.7113 1.93716,1.34907 2.8352423,2.11717 0.2031,0.17776 0.41064,0.35055 0.6093,0.53325 0.35579,0.32722 0.71989,0.70476 1.05672,1.05193 0.54519,0.56191 1.08441,1.12982 1.60227,1.71721 0.47578,0.54136 0.61814,0.69783 1.0748,1.23823 0.62125,0.73519 0.39395,0.48165 1.0323,1.24362 0.17495,0.20883 0.3559,0.41261 0.52901,0.62296 0.19333,0.23493 0.38012,0.47516 0.57018,0.71274 0.48404,0.62757 0.66966,0.8597 1.13154,1.49106 0.74423,1.01734 1.44443,2.06658 2.12133,3.12966 0.40572,0.66156 0.63701,1.02875 1.02033,1.69074 0.66482,1.14812 1.27617,2.32584 1.8827,3.50541 0.84494,1.67466 1.73652,3.32562 2.5441,5.01918 0.37088,0.7685 0.77945,1.52548 1.04852,2.33772 0.0548,0.16259 0.14173,0.41329 0.18948,0.58087 0.0273,0.0957 0.0474,0.19326 0.0742,0.28906 0.0622,0.22231 0.14337,0.43869 0.20881,0.65998 0.15128,0.27475 0.29646,0.55282 0.45015,0.82615 0.28157,0.39278 0.42431,0.36491 1.01998,0.72197 0.0733,0.044 0.14804,0.0638 0.23378,0.0566 0.23936,-0.0556 0.42071,-0.21909 0.5516,-0.42309 0.0338,-0.064 0.10111,-0.18676 0.12536,-0.25337 0.0685,-0.18817 0.0635,-0.38546 0.0558,-0.58219 -0.0131,-0.33755 -0.0374,-0.67667 -0.17845,-0.98929 -0.25117,-0.54067 -0.58132,-1.04429 -0.97161,-1.49495 -0.29303,-0.31653 -0.35941,-0.40074 -0.68377,-0.69816 -0.54018,-0.4953 -1.14476,-0.91402 -1.7265,-1.35763 -1.31869,-0.94688 -2.66643,-1.85477 -4.0924,-2.63478 -1.05371,-0.5874 -2.11293,-1.1755 -3.22367,-1.64881 -0.78464,-0.32094 -1.57267,-0.63983 -2.32207,-1.03819 -0.0521,-0.0295 -1.14398,-0.64815 0.29953,0.17818 0.0814,0.0466 -0.16072,-0.0966 -0.24186,-0.14352 -0.50245,-0.29084 -0.98706,-0.60884 -1.52875,-0.81986 -0.48539,-0.18841 -0.96964,-0.37925 -1.46964,-0.52658 -0.1272,-0.0386 -0.37644,-0.11641 -0.50566,-0.14712 -0.28845,-0.0686 -0.58714,-0.0803 -0.88037,-0.11633 -0.29678,-0.0167 -0.59311,-0.0447 -0.89061,-0.043 0,0 0.76354,0.55474 0.76354,0.55474 z"
       inkscape:connector-curvature="0" />
    <path
       style="opacity:1;fill:#000000;fill-opacity:1;stroke:none;stroke-width:0.16484161;stroke-miterlimit:4;stroke-dasharray:none;paint-order:markers fill stroke"
       id="path6350-6"
       d="m 45.81377,284.36485 c -0.27881,-0.008 -0.55687,0.0217 -0.83539,0.0336 -0.27828,0.0375 -0.56106,0.0509 -0.83364,0.12485 -0.0785,0.0213 -0.39995,0.12585 -0.47562,0.15022 -0.47925,0.14816 -0.94172,0.3443 -1.4074,0.53195 -0.24875,0.0973 -1.05315,0.55368 0.0313,-0.067 0.0781,-0.0447 -0.15279,0.0953 -0.22986,0.14177 -0.8011,0.4828 -0.7086,0.42754 -1.20472,0.71968 -0.71745,0.38035 -1.46545,0.69183 -2.21034,1.00772 -1.05838,0.47428 -2.0705,1.05516 -3.073238,1.64422 0.05137,-0.0285 0.203138,-0.11851 0.154218,-0.0856 -1.446196,0.97321 0.23359,-0.19888 -1.159781,0.76352 -0.516497,0.35674 -1.021137,0.73086 -1.524682,1.10694 -0.55427,0.44057 -1.129347,0.85731 -1.647409,1.34507 -0.310957,0.29278 -0.3716,0.37324 -0.651342,0.68552 -0.364668,0.43771 -0.669969,0.92878 -0.907089,1.45272 -0.133549,0.30051 -0.164312,0.62556 -0.177562,0.95171 -0.0029,0.18638 -0.01843,0.37798 0.04177,0.5577 0.01911,0.0572 0.08497,0.18023 0.112214,0.23314 0.102113,0.14434 0.234816,0.31361 0.417313,0.34538 0.02352,0.004 0.04762,-0.003 0.07144,-0.005 0.02333,-0.006 0.0482,-0.007 0.06999,-0.017 0.02141,-0.0102 0.03735,-0.0299 0.05684,-0.0436 0.02103,-0.0147 0.0868,-0.0544 0.06471,-0.0415 -0.237091,0.13862 -0.468192,0.28869 -0.709777,0.4186 -0.0337,0.0181 0.05675,-0.0526 0.08267,-0.0814 0.02881,-0.0321 0.05425,-0.0673 0.08132,-0.10096 0.162564,-0.26193 0.299905,-0.53937 0.441356,-0.8139 0.195949,-0.49666 0.316708,-1.01965 0.483439,-1.52701 0.260596,-0.82765 0.664659,-1.59896 1.047685,-2.37046 0.812697,-1.69996 1.676214,-3.37276 2.519597,-5.05628 0.164629,-0.33474 0.329296,-0.66947 0.493896,-1.00423 0.07633,-0.15515 0.704932,-1.43839 0.818332,-1.65337 0.4551,-0.86278 0.95321,-1.70084 1.45372,-2.53536 0.79262,-1.32021 1.62927,-2.61336 2.53437,-3.85318 0.189,-0.25891 0.38338,-0.51352 0.57506,-0.77028 0.98813,-1.2988 2.00453,-2.5751 3.0602,-3.81502 0.82517,-0.94107 1.63609,-1.90467 2.53743,-2.76928 0.19266,-0.1848 0.39363,-0.36 0.59044,-0.53999 0.84476,-0.76739 1.78255,-1.40806 2.67846,-2.10566 0.53453,-0.41165 1.08188,-0.80267 1.66097,-1.14353 1.12343,-0.66126 0.74311,-0.4665 1.46927,-0.81515 0.49784,-0.26702 0.99916,-0.52869 1.52157,-0.73976 0.31344,-0.0957 0.61019,-0.22111 0.93171,-0.28383 0.2707,-0.0451 0.54552,-0.0471 0.81897,-0.0501 0.14593,-0.004 0.30359,-0.003 0.43461,0.0763 0.0514,0.031 0.15606,0.13311 0.19537,0.1696 0.22,0.21369 0.3322,0.4877 0.39541,0.7875 0.082,0.43877 -0.091,0.83503 -0.27957,1.21659 -0.24766,0.40686 -0.56613,0.75193 -0.88606,1.09556 -0.25885,0.30834 -0.5696,0.55746 -0.88165,0.80331 -0.87729,0.6897 -1.85398,1.22859 -2.80757,1.7916 -1.46964,0.76544 -2.96488,1.47922 -4.46798,2.17038 -2.10347,0.90889 -4.20447,1.82453 -6.32115,2.69972 0,0 0.59278,-0.4849 0.59278,-0.4849 v 0 c 2.11407,-0.85797 4.20414,-1.77773 6.29876,-2.68553 1.53589,-0.71282 3.06228,-1.45082 4.55714,-2.25331 -0.1184,0.0749 -0.48573,0.27314 -0.3552,0.22478 0.14544,-0.0539 0.26772,-0.16016 0.40077,-0.24167 0.44442,-0.27224 0.88454,-0.55485 1.29209,-0.88494 0.30646,-0.24228 0.61698,-0.48386 0.87392,-0.7847 0.14045,-0.15255 0.2938,-0.29268 0.4292,-0.45014 0.17027,-0.19802 0.31931,-0.41512 0.4747,-0.6255 0.18782,-0.35768 0.36793,-0.73258 0.29143,-1.15137 -0.0534,-0.28199 -0.15196,-0.53974 -0.36469,-0.73456 -0.0567,-0.047 -0.1174,-0.10448 -0.18464,-0.13766 -0.12773,-0.063 -0.27311,-0.0545 -0.41005,-0.053 -0.27025,0.004 -0.54203,0.01 -0.80827,0.0637 -0.30978,0.0719 -0.60876,0.18848 -0.91111,0.28748 -0.51015,0.213 -1.00251,0.46794 -1.49381,0.72386 -0.12489,0.0613 -0.30674,0.30912 -0.37466,0.18393 -0.0678,-0.12501 0.48204,-0.26961 0.34939,-0.23051 -0.15616,0.046 -0.28351,0.16475 -0.42248,0.25205 -0.43127,0.27096 -0.83465,0.58161 -1.24602,0.88336 -0.9036,0.7113 -1.85998,1.34907 -2.72227,2.11717 -0.19501,0.17776 -0.39428,0.35055 -0.58502,0.53325 -0.34162,0.32722 -0.69121,0.70476 -1.01462,1.05193 -0.52347,0.56191 -1.04121,1.12982 -1.53843,1.71721 -0.45683,0.54136 -0.59352,0.69783 -1.03198,1.23823 -0.5965,0.73519 -0.37825,0.48165 -0.99117,1.24362 -0.16798,0.20883 -0.34172,0.41261 -0.50793,0.62296 -0.18563,0.23493 -0.36498,0.47516 -0.54747,0.71274 -0.46475,0.62757 -0.64298,0.8597 -1.08645,1.49106 -0.71458,1.01734 -1.38688,2.06658 -2.03681,3.12966 -0.38956,0.66156 -0.61163,1.02875 -0.97968,1.69074 -0.63833,1.14812 -1.22532,2.32584 -1.807685,3.50541 -0.811276,1.67466 -1.667333,3.32562 -2.442737,5.01918 -0.356103,0.7685 -0.748394,1.52548 -1.006744,2.33772 -0.05262,0.16259 -0.136083,0.41329 -0.18193,0.58087 -0.02621,0.0957 -0.04551,0.19326 -0.07124,0.28906 -0.05972,0.22231 -0.137658,0.43869 -0.2005,0.65998 -0.145243,0.27475 -0.284639,0.55282 -0.432205,0.82615 -0.270352,0.39278 -0.407405,0.36491 -0.979342,0.72197 -0.07038,0.044 -0.142141,0.0638 -0.224465,0.0566 -0.229833,-0.0556 -0.403958,-0.21909 -0.529633,-0.42309 -0.03245,-0.064 -0.09708,-0.18676 -0.120355,-0.25337 -0.06577,-0.18817 -0.06097,-0.38546 -0.05358,-0.58219 0.01258,-0.33755 0.03591,-0.67667 0.17134,-0.98929 0.241163,-0.54067 0.558159,-1.04429 0.932898,-1.49495 0.281355,-0.31653 0.345091,-0.40074 0.656527,-0.69816 0.518658,-0.4953 1.09915,-0.91402 1.657712,-1.35763 1.26615,-0.94688 2.560192,-1.85477 3.929349,-2.63478 1.01173,-0.5874 2.02874,-1.1755 3.09522,-1.64881 0.75338,-0.32094 1.51002,-0.63983 2.22956,-1.03819 0.05,-0.0295 1.0984,-0.64815 -0.2876,0.17818 -0.0782,0.0466 0.15432,-0.0966 0.23222,-0.14352 0.48244,-0.29084 0.94774,-0.60884 1.46785,-0.81986 0.46605,-0.18841 0.931,-0.37925 1.41108,-0.52658 0.12213,-0.0386 0.36144,-0.11641 0.48551,-0.14712 0.27696,-0.0686 0.56375,-0.0803 0.8453,-0.11633 0.28495,-0.0167 0.56948,-0.0447 0.85512,-0.043 0,0 -0.73311,0.55474 -0.73311,0.55474 z"
       inkscape:connector-curvature="0" />
    <path
       style="opacity:1;fill:#000000;fill-opacity:1;stroke:none;stroke-width:0.1375649;stroke-miterlimit:4;stroke-dasharray:none;paint-order:markers fill stroke"
       id="path6350-9"
       d="m 14.786973,283.26503 c 0.237453,-0.007 0.474261,0.0177 0.711469,0.0275 0.237004,0.0307 0.477835,0.0416 0.709981,0.1021 0.06689,0.0174 0.340627,0.10291 0.405073,0.12284 0.408164,0.12115 0.802033,0.28154 1.198634,0.43499 0.211859,0.0796 0.896932,0.45276 -0.02666,-0.0548 -0.06648,-0.0366 0.130126,0.0779 0.195766,0.11593 0.682268,0.39481 0.603495,0.34962 1.026019,0.58851 0.611027,0.31103 1.248074,0.56573 1.882472,0.82405 0.901388,0.38783 1.763378,0.86284 2.617378,1.34453 -0.04375,-0.0233 -0.173008,-0.0969 -0.131344,-0.07 1.231679,0.79583 -0.198938,-0.16263 0.987749,0.62436 0.439884,0.29172 0.869668,0.59765 1.298521,0.90518 0.472053,0.36027 0.961826,0.70105 1.403043,1.09991 0.264839,0.23942 0.316479,0.30521 0.554733,0.56057 0.310568,0.35793 0.570584,0.7595 0.772531,1.18794 0.113746,0.24574 0.139939,0.51154 0.151224,0.77825 0.0025,0.15241 0.01571,0.30909 -0.03557,0.45606 -0.01627,0.0468 -0.07237,0.14737 -0.09557,0.19064 -0.08697,0.11803 -0.199987,0.25644 -0.355412,0.28243 -0.02004,0.003 -0.04056,-0.002 -0.06084,-0.004 -0.01986,-0.005 -0.04105,-0.006 -0.05961,-0.0139 -0.01823,-0.008 -0.03181,-0.0245 -0.04841,-0.0357 -0.01792,-0.012 -0.07392,-0.0445 -0.05512,-0.0339 0.201923,0.11336 0.398743,0.23607 0.6045,0.34231 0.0287,0.0148 -0.04833,-0.043 -0.07041,-0.0666 -0.02453,-0.0263 -0.0462,-0.055 -0.06926,-0.0826 -0.13845,-0.21419 -0.255426,-0.44106 -0.375895,-0.66555 -0.166876,-0.40613 -0.269722,-0.83381 -0.411729,-1.2487 -0.221934,-0.67678 -0.566061,-1.30751 -0.892271,-1.9384 -0.692146,-1.39012 -1.427575,-2.75803 -2.145857,-4.1347 -0.140208,-0.27373 -0.28045,-0.54745 -0.420634,-0.82119 -0.06501,-0.12688 -0.600372,-1.17622 -0.696946,-1.35202 -0.387598,-0.70552 -0.811814,-1.39083 -1.238082,-2.07325 -0.675056,-1.07958 -1.387605,-2.13703 -2.158442,-3.15088 -0.16097,-0.21172 -0.326513,-0.41992 -0.489765,-0.62988 -0.841554,-1.06207 -1.70719,-2.10575 -2.606264,-3.11967 -0.702769,-0.76955 -1.393403,-1.55752 -2.161042,-2.26453 -0.164087,-0.15112 -0.335247,-0.29438 -0.502866,-0.44157 -0.71945,-0.62752 -1.518139,-1.15141 -2.281158,-1.72187 -0.455241,-0.33662 -0.921398,-0.65637 -1.41459,-0.9351 -0.9567923,-0.54073 -0.6328868,-0.38147 -1.2513313,-0.66657 -0.423995,-0.21836 -0.850951,-0.43233 -1.295871,-0.60494 -0.266942,-0.0783 -0.519679,-0.1808 -0.793505,-0.23209 -0.230544,-0.0369 -0.464604,-0.0385 -0.697486,-0.041 -0.124288,-0.003 -0.258559,-0.002 -0.370147,0.0624 -0.04375,0.0253 -0.132907,0.10884 -0.166385,0.13868 -0.187367,0.17474 -0.282927,0.39881 -0.336759,0.64397 -0.06983,0.3588 0.07752,0.68283 0.2381,0.99485 0.210926,0.3327 0.482152,0.61487 0.754629,0.89587 0.220453,0.25214 0.485104,0.45586 0.750868,0.6569 0.747155,0.56399 1.578971,1.00466 2.391111,1.46505 1.2516503,0.62592 2.5250913,1.2096 3.8052373,1.77478 1.791459,0.74323 3.580808,1.49198 5.383511,2.20766 0,0 -0.504845,-0.39652 -0.504845,-0.39652 v 0 c -1.800486,-0.70159 -3.58053,-1.45371 -5.364449,-2.19605 -1.308072,-0.5829 -2.60804,-1.18638 -3.8811633,-1.8426 0.100834,0.0612 0.413675,0.22335 0.302504,0.18381 -0.123862,-0.0441 -0.228001,-0.13097 -0.341322,-0.19762 -0.378497,-0.22262 -0.753329,-0.45372 -1.100425,-0.72365 -0.261004,-0.19812 -0.525459,-0.39567 -0.744293,-0.64167 -0.11961,-0.12475 -0.250218,-0.23934 -0.365535,-0.3681 -0.145009,-0.16193 -0.271946,-0.33946 -0.404288,-0.51149 -0.159957,-0.29249 -0.313347,-0.59906 -0.248199,-0.94152 0.04547,-0.23059 0.129423,-0.44136 0.310592,-0.60067 0.04833,-0.0384 0.09999,-0.0854 0.157259,-0.11257 0.108783,-0.0515 0.232596,-0.0446 0.349221,-0.0433 0.230168,0.003 0.461627,0.008 0.688377,0.0521 0.263833,0.0588 0.518459,0.15413 0.775964,0.23508 0.434478,0.17418 0.853804,0.38265 1.2722301,0.59193 0.1063634,0.0501 0.2612442,0.25277 0.3190822,0.1504 0.05773,-0.10222 -0.4105373,-0.22047 -0.2975592,-0.18849 0.1329968,0.0376 0.2414542,0.13472 0.3598132,0.20611 0.367293,0.22157 0.71084,0.4756 1.06119,0.72235 0.769569,0.58165 1.584081,1.10318 2.318472,1.73128 0.166081,0.14536 0.335794,0.28666 0.498245,0.43606 0.290942,0.26758 0.588678,0.5763 0.864116,0.86019 0.44582,0.45949 0.886759,0.92389 1.31023,1.40422 0.389062,0.44269 0.505474,0.57064 0.878901,1.01254 0.508017,0.60119 0.322146,0.39386 0.844146,1.01695 0.143063,0.17077 0.291032,0.33741 0.43259,0.50942 0.158092,0.19211 0.310837,0.38855 0.466255,0.58283 0.395816,0.51319 0.547604,0.70301 0.925299,1.21929 0.608582,0.83191 1.18116,1.68991 1.734684,2.55923 0.331771,0.54098 0.520904,0.84124 0.834358,1.38257 0.543646,0.93886 1.043568,1.90192 1.539548,2.8665 0.690936,1.36942 1.420011,2.71947 2.080397,4.10435 0.303281,0.62843 0.637382,1.24745 0.85741,1.91163 0.04481,0.13296 0.115897,0.33797 0.154944,0.475 0.02232,0.0783 0.03876,0.15804 0.06068,0.23638 0.05086,0.18179 0.117239,0.35874 0.170752,0.53969 0.123706,0.22467 0.242424,0.45206 0.368102,0.67556 0.230249,0.3212 0.346973,0.2984 0.834072,0.59038 0.05994,0.036 0.121057,0.0522 0.19117,0.0463 0.195734,-0.0455 0.34403,-0.17916 0.451063,-0.34598 0.02764,-0.0523 0.08268,-0.15271 0.10251,-0.20719 0.05601,-0.15386 0.05193,-0.3152 0.04563,-0.47606 -0.01071,-0.27604 -0.03058,-0.55334 -0.145926,-0.80899 -0.205389,-0.44212 -0.475365,-0.85394 -0.794519,-1.22247 -0.239619,-0.25884 -0.293902,-0.32769 -0.55914,-0.57091 -0.441724,-0.40502 -0.93611,-0.74742 -1.411819,-1.11018 -1.078337,-0.7743 -2.18043,-1.51671 -3.346494,-2.15455 -0.861654,-0.48034 -1.727814,-0.96124 -2.636104,-1.34829 -0.641627,-0.26244 -1.286026,-0.52321 -1.898836,-0.84896 -0.0426,-0.0241 -0.935471,-0.53001 0.244936,0.1457 0.06656,0.0381 -0.131426,-0.079 -0.197777,-0.11736 -0.41087,-0.23783 -0.807152,-0.49787 -1.250111,-0.67042 -0.39692,-0.15407 -0.792907,-0.31013 -1.201774,-0.43061 -0.104016,-0.0316 -0.307828,-0.0952 -0.413496,-0.1203 -0.235875,-0.0561 -0.480124,-0.0657 -0.719908,-0.0951 -0.242687,-0.0136 -0.485006,-0.0366 -0.728282,-0.0352 0,0 0.624373,0.45363 0.624373,0.45363 z"
       inkscape:connector-curvature="0" />
    <path
       style="opacity:1;fill:#000000;fill-opacity:1;stroke:none;stroke-width:0.13479657;stroke-miterlimit:4;stroke-dasharray:none;paint-order:markers fill stroke"
       id="path6350-6-5"
       d="m 42.791563,283.26503 c -0.227992,-0.007 -0.45537,0.0177 -0.683127,0.0275 -0.227557,0.0307 -0.458797,0.0416 -0.681694,0.1021 -0.06419,0.0174 -0.327052,0.10291 -0.388931,0.12284 -0.391899,0.12115 -0.770077,0.28154 -1.150879,0.43499 -0.203409,0.0796 -0.861197,0.45276 0.02559,-0.0548 0.06387,-0.0366 -0.12494,0.0779 -0.187964,0.11593 -0.655087,0.39481 -0.579445,0.34962 -0.98514,0.58851 -0.586682,0.31103 -1.198348,0.56573 -1.80747,0.82405 -0.865474,0.38783 -1.693119,0.86284 -2.513091,1.34453 0.04201,-0.0233 0.166112,-0.0969 0.126109,-0.07 -1.182604,0.79583 0.191014,-0.16263 -0.948392,0.62436 -0.422358,0.29172 -0.835019,0.59765 -1.246784,0.90518 -0.453246,0.36027 -0.923506,0.70105 -1.347143,1.09991 -0.25428,0.23942 -0.303869,0.30521 -0.532625,0.56057 -0.298201,0.35793 -0.547855,0.7595 -0.741756,1.18794 -0.109209,0.24574 -0.134364,0.51154 -0.145198,0.77825 -0.0024,0.15241 -0.01508,0.30909 0.03416,0.45606 0.01562,0.0468 0.06948,0.14737 0.09176,0.19064 0.0835,0.11803 0.192018,0.25644 0.341252,0.28243 0.01923,0.003 0.03894,-0.002 0.05842,-0.004 0.01908,-0.005 0.03941,-0.006 0.05723,-0.0139 0.0175,-0.008 0.03054,-0.0245 0.04648,-0.0357 0.0172,-0.012 0.07098,-0.0445 0.05291,-0.0339 -0.193876,0.11336 -0.382857,0.23607 -0.580408,0.34231 -0.02756,0.0148 0.04641,-0.043 0.0676,-0.0666 0.02356,-0.0263 0.04436,-0.055 0.0665,-0.0826 0.132934,-0.21419 0.245242,-0.44106 0.360911,-0.66555 0.160234,-0.40613 0.258984,-0.83381 0.395325,-1.2487 0.213098,-0.67678 0.543515,-1.30751 0.856727,-1.9384 0.664571,-1.39012 1.370697,-2.75802 2.06036,-4.13469 0.134623,-0.27373 0.269276,-0.54745 0.403875,-0.8212 0.06242,-0.12687 0.576447,-1.17622 0.669178,-1.35201 0.372152,-0.70553 0.779474,-1.39084 1.188758,-2.07325 0.648152,-1.07958 1.332309,-2.13704 2.072439,-3.15088 0.154552,-0.21172 0.313502,-0.41992 0.470246,-0.62988 0.808028,-1.06208 1.639173,-2.10575 2.502429,-3.11967 0.674771,-0.76955 1.337887,-1.55751 2.074943,-2.26453 0.157547,-0.15112 0.321886,-0.29438 0.482824,-0.44157 0.690788,-0.62752 1.457651,-1.15142 2.190268,-1.72187 0.437102,-0.33662 0.884688,-0.65637 1.35823,-0.9351 0.918668,-0.54074 0.607667,-0.38147 1.201473,-0.66658 0.407101,-0.21835 0.817046,-0.43232 1.244238,-0.60492 0.256312,-0.0783 0.498973,-0.18081 0.761892,-0.2321 0.221362,-0.0369 0.446091,-0.0385 0.6697,-0.041 0.11933,-0.003 0.248254,-0.002 0.355395,0.0624 0.04203,0.0253 0.127615,0.10885 0.159759,0.13869 0.179903,0.17474 0.271652,0.39881 0.323342,0.64397 0.06705,0.35879 -0.07441,0.68283 -0.228615,0.99484 -0.202519,0.33271 -0.462943,0.61488 -0.72456,0.89588 -0.21167,0.25214 -0.465781,0.45585 -0.720954,0.65689 -0.717393,0.564 -1.516064,1.00466 -2.295846,1.46506 -1.201776,0.62591 -2.424484,1.2096 -3.653621,1.77479 -1.720078,0.74323 -3.438138,1.49197 -5.169018,2.20764 0,0 0.484736,-0.39651 0.484736,-0.39651 v 0 c 1.728748,-0.70159 3.437867,-1.45371 5.150711,-2.19605 1.255949,-0.5829 2.504129,-1.18638 3.726526,-1.8426 -0.09682,0.0612 -0.397198,0.22335 -0.290457,0.18381 0.11893,-0.0441 0.218923,-0.13097 0.327723,-0.19763 0.363418,-0.22262 0.723318,-0.45371 1.056586,-0.72364 0.250602,-0.19812 0.504525,-0.39567 0.714633,-0.64168 0.114852,-0.12474 0.240251,-0.23933 0.350973,-0.36809 0.139236,-0.16193 0.26111,-0.33946 0.388178,-0.51149 0.153586,-0.29249 0.300869,-0.59906 0.238313,-0.94152 -0.04367,-0.23059 -0.124264,-0.44136 -0.29822,-0.60067 -0.04637,-0.0384 -0.096,-0.0854 -0.150987,-0.11257 -0.104449,-0.0515 -0.223332,-0.0446 -0.335312,-0.0433 -0.220994,0.003 -0.443238,0.008 -0.66095,0.0521 -0.253318,0.0588 -0.497803,0.15412 -0.745045,0.23508 -0.417169,0.17418 -0.819789,0.38265 -1.221541,0.59192 -0.102126,0.0501 -0.250831,0.25278 -0.306373,0.15041 -0.05544,-0.10222 0.394182,-0.22047 0.285709,-0.1885 -0.127697,0.0376 -0.231835,0.13473 -0.345475,0.20611 -0.352665,0.22158 -0.682521,0.47561 -1.018914,0.72236 -0.738904,0.58165 -1.520967,1.10318 -2.226092,1.73128 -0.159467,0.14536 -0.322418,0.28666 -0.47839,0.43606 -0.279354,0.26758 -0.565227,0.5763 -0.82969,0.8602 -0.42806,0.45949 -0.851433,0.92389 -1.258028,1.40422 -0.373564,0.44268 -0.48534,0.57064 -0.843883,1.01254 -0.487779,0.60119 -0.309309,0.39386 -0.810515,1.01695 -0.137361,0.17077 -0.279436,0.3374 -0.41535,0.50941 -0.151798,0.19211 -0.298457,0.38856 -0.447686,0.58284 -0.380042,0.51318 -0.525785,0.703 -0.888427,1.21929 -0.584335,0.83191 -1.134099,1.68991 -1.665568,2.55923 -0.318557,0.54098 -0.500151,0.84124 -0.801119,1.38257 -0.521982,0.93886 -1.001986,1.90192 -1.478204,2.86649 -0.663408,1.36943 -1.363434,2.71948 -1.997508,4.10436 -0.291198,0.62843 -0.611988,1.24743 -0.82325,1.91163 -0.04303,0.13296 -0.11128,0.33796 -0.14877,0.475 -0.02144,0.0783 -0.03722,0.15803 -0.05826,0.23637 -0.04884,0.18179 -0.112567,0.35873 -0.163956,0.53969 -0.118771,0.22467 -0.232759,0.45206 -0.353429,0.67557 -0.221076,0.32119 -0.33315,0.2984 -0.800841,0.59038 -0.05755,0.036 -0.116233,0.0522 -0.183553,0.0463 -0.187942,-0.0455 -0.33033,-0.17915 -0.433098,-0.34597 -0.02654,-0.0523 -0.07939,-0.15272 -0.09842,-0.20719 -0.05378,-0.15387 -0.04986,-0.3152 -0.04381,-0.47608 0.01028,-0.27602 0.02936,-0.55333 0.14011,-0.80897 0.197207,-0.44213 0.456426,-0.85395 0.762861,-1.22247 0.230074,-0.25884 0.282193,-0.3277 0.536866,-0.57091 0.424124,-0.40503 0.898811,-0.74743 1.355566,-1.11018 1.035375,-0.7743 2.093557,-1.51671 3.213164,-2.15455 0.827325,-0.48034 1.658969,-0.96125 2.531066,-1.34829 0.616064,-0.26244 1.234795,-0.52321 1.823186,-0.84896 0.04089,-0.0241 0.898199,-0.53002 -0.235179,0.1457 -0.06395,0.0381 0.126191,-0.079 0.189893,-0.11736 0.394507,-0.23783 0.775,-0.49787 1.200311,-0.67043 0.381105,-0.15407 0.761311,-0.31012 1.153887,-0.4306 0.09987,-0.0316 0.295563,-0.0952 0.397019,-0.12031 0.226479,-0.0561 0.460997,-0.0657 0.691231,-0.0951 0.233012,-0.0137 0.465682,-0.0366 0.699261,-0.0352 0,0 -0.599489,0.45363 -0.599489,0.45363 z"
       inkscape:connector-curvature="0" />
    <path
       style="opacity:1;fill:#000000;fill-opacity:1;stroke:none;stroke-width:0.11155851;stroke-miterlimit:4;stroke-dasharray:none;paint-order:markers fill stroke"
       id="path6350-3"
       d="m 17.969134,282.86941 c 0.192563,-0.005 0.384603,0.0144 0.576967,0.0223 0.192199,0.0249 0.387501,0.0338 0.575761,0.0828 0.05424,0.0141 0.276232,0.0835 0.328494,0.0996 0.331001,0.0983 0.650411,0.22832 0.972035,0.35276 0.171807,0.0645 0.727368,0.36717 -0.02162,-0.0444 -0.05391,-0.0296 0.105526,0.0632 0.158757,0.094 0.553286,0.32017 0.489406,0.28352 0.832052,0.47725 0.495514,0.25223 1.012129,0.45879 1.526595,0.66827 0.730982,0.31451 1.430014,0.69972 2.122568,1.09035 -0.03548,-0.0189 -0.140301,-0.0786 -0.106514,-0.0568 0.998832,0.64538 -0.16133,-0.13188 0.801017,0.50633 0.356724,0.23657 0.705259,0.48466 1.053037,0.73406 0.382813,0.29216 0.779997,0.56851 1.137797,0.89197 0.21478,0.19415 0.25665,0.24751 0.44987,0.4546 0.25185,0.29026 0.46271,0.61591 0.62648,0.96336 0.0923,0.19928 0.11349,0.41483 0.12264,0.63112 0.002,0.12359 0.0127,0.25065 -0.0289,0.36983 -0.0132,0.0379 -0.0587,0.11952 -0.0775,0.15461 -0.0705,0.0957 -0.16218,0.20797 -0.28822,0.22903 -0.0162,0.003 -0.0329,-0.002 -0.0493,-0.003 -0.0161,-0.004 -0.0333,-0.005 -0.0483,-0.0113 -0.0148,-0.007 -0.0258,-0.0198 -0.0393,-0.0289 -0.0145,-0.01 -0.06,-0.0361 -0.0447,-0.0275 0.16375,0.0919 0.32336,0.19144 0.49022,0.27759 0.0233,0.012 -0.0392,-0.0349 -0.0571,-0.054 -0.0199,-0.0213 -0.0375,-0.0446 -0.0562,-0.067 -0.11228,-0.1737 -0.20714,-0.35768 -0.30483,-0.53973 -0.13533,-0.32936 -0.21874,-0.67617 -0.3339,-1.01263 -0.17997,-0.54885 -0.45904,-1.06034 -0.72359,-1.57195 -0.561294,-1.12732 -1.157691,-2.23663 -1.740182,-3.35304 -0.113703,-0.22198 -0.227432,-0.44396 -0.341115,-0.66595 -0.05272,-0.10289 -0.486872,-0.95386 -0.56519,-1.09642 -0.314323,-0.57215 -0.658341,-1.1279 -1.004024,-1.68131 -0.547438,-0.87548 -1.125281,-1.73303 -1.750392,-2.55521 -0.13054,-0.17169 -0.264787,-0.34053 -0.397176,-0.5108 -0.682461,-0.86129 -1.384451,-1.70766 -2.113557,-2.5299 -0.569911,-0.62407 -1.129982,-1.26307 -1.752501,-1.83643 -0.133066,-0.12256 -0.271868,-0.23873 -0.407799,-0.3581 -0.58344,-0.50888 -1.231138,-0.93374 -1.84991,-1.39635 -0.369178,-0.27298 -0.74721,-0.53228 -1.147164,-0.75832 -0.77591,-0.43851 -0.51324,-0.30936 -1.014768,-0.54056 -0.343839,-0.17707 -0.69008,-0.3506 -1.050889,-0.49057 -0.216476,-0.0635 -0.421434,-0.14662 -0.643494,-0.18822 -0.18696,-0.0299 -0.376771,-0.0312 -0.565628,-0.0332 -0.100791,-0.003 -0.209679,-0.002 -0.300171,0.0506 -0.03548,0.0205 -0.107781,0.0883 -0.13493,0.11247 -0.151946,0.1417 -0.229441,0.32341 -0.273095,0.52222 -0.05663,0.29097 0.06287,0.55375 0.193087,0.80677 0.171051,0.26981 0.391002,0.49864 0.611968,0.72652 0.178777,0.20447 0.393396,0.36967 0.608918,0.53271 0.605907,0.45737 1.280469,0.81473 1.939076,1.18808 1.015026,0.5076 2.047725,0.98094 3.085862,1.43928 1.452787,0.60272 2.903863,1.20992 4.365768,1.7903 0,0 -0.409405,-0.32156 -0.409405,-0.32156 v 0 c -1.460108,-0.56896 -2.903637,-1.17889 -4.35031,-1.78089 -1.060783,-0.4727 -2.114994,-0.9621 -3.147435,-1.49427 0.08177,0.0497 0.335471,0.18113 0.245317,0.14906 -0.100446,-0.0357 -0.184898,-0.10621 -0.276796,-0.16026 -0.306942,-0.18053 -0.610914,-0.36794 -0.892391,-0.58684 -0.211662,-0.16067 -0.426123,-0.32087 -0.603586,-0.52037 -0.097,-0.10116 -0.202915,-0.19409 -0.296432,-0.29851 -0.117595,-0.13131 -0.220535,-0.27528 -0.327858,-0.41479 -0.129717,-0.2372 -0.254109,-0.48581 -0.201277,-0.76353 0.03687,-0.18699 0.104956,-0.35792 0.251875,-0.48711 0.03919,-0.0312 0.08109,-0.0693 0.127529,-0.0913 0.08822,-0.0418 0.188625,-0.0361 0.283202,-0.0352 0.186655,0.003 0.374357,0.007 0.55824,0.0422 0.213957,0.0477 0.420446,0.12499 0.62927,0.19064 0.352341,0.14125 0.692394,0.31032 1.031717,0.48003 0.08625,0.0406 0.211855,0.20499 0.258759,0.12197 0.04682,-0.0829 -0.332925,-0.17879 -0.241305,-0.15286 0.107854,0.0305 0.195806,0.10925 0.29179,0.16714 0.297857,0.17969 0.576457,0.38569 0.860573,0.5858 0.624084,0.47169 1.284614,0.89462 1.88017,1.40398 0.134684,0.11788 0.272312,0.23247 0.404052,0.35362 0.23594,0.217 0.47739,0.46736 0.700757,0.69758 0.361539,0.37263 0.719118,0.74924 1.062534,1.13876 0.31551,0.359 0.409915,0.46276 0.712746,0.82112 0.411977,0.48754 0.261245,0.31941 0.684562,0.8247 0.116017,0.13848 0.236012,0.27362 0.350809,0.41311 0.128205,0.15579 0.252074,0.3151 0.378111,0.47265 0.320988,0.41617 0.444081,0.5701 0.750373,0.98879 0.493531,0.67464 0.957864,1.37043 1.406745,2.07541 0.26905,0.43871 0.422429,0.68221 0.676624,1.1212 0.440871,0.76137 0.846283,1.54236 1.248499,2.32459 0.560316,1.11054 1.151561,2.20536 1.687102,3.32843 0.245945,0.50963 0.516885,1.01161 0.695315,1.55024 0.0363,0.10782 0.094,0.27407 0.12566,0.3852 0.0181,0.0635 0.0314,0.12816 0.0492,0.19169 0.0412,0.14742 0.0951,0.29091 0.13847,0.43766 0.10032,0.1822 0.1966,0.3666 0.29852,0.54786 0.18672,0.26047 0.28137,0.24198 0.67639,0.47877 0.0486,0.0292 0.0982,0.0423 0.15503,0.0375 0.15873,-0.0369 0.27899,-0.14529 0.36579,-0.28057 0.0224,-0.0424 0.0671,-0.12385 0.0831,-0.16802 0.0454,-0.12478 0.0421,-0.25561 0.037,-0.38607 -0.009,-0.22385 -0.0248,-0.44873 -0.11833,-0.65605 -0.16657,-0.35854 -0.3855,-0.69251 -0.64432,-0.99136 -0.19432,-0.20991 -0.23834,-0.26575 -0.45344,-0.46298 -0.35821,-0.32846 -0.75914,-0.60613 -1.14491,-0.9003 -0.874485,-0.62792 -1.768229,-1.22998 -2.713851,-1.74724 -0.69876,-0.38953 -1.401174,-0.77952 -2.137753,-1.0934 -0.520329,-0.21282 -1.042907,-0.42429 -1.539866,-0.68846 -0.03455,-0.0196 -0.758622,-0.42982 0.198631,0.11816 0.05398,0.0309 -0.10658,-0.0641 -0.160387,-0.0952 -0.333197,-0.19287 -0.654562,-0.40375 -1.01378,-0.54368 -0.321883,-0.12495 -0.64301,-0.2515 -0.974581,-0.3492 -0.08435,-0.0256 -0.249634,-0.0772 -0.335325,-0.0976 -0.191284,-0.0455 -0.389358,-0.0533 -0.583811,-0.0772 -0.196808,-0.0111 -0.393317,-0.0296 -0.590602,-0.0285 0,0 0.506336,0.36787 0.506336,0.36787 z"
       inkscape:connector-curvature="0" />
    <path
       style="opacity:1;fill:#000000;fill-opacity:1;stroke:none;stroke-width:0.10931353;stroke-miterlimit:4;stroke-dasharray:none;paint-order:markers fill stroke"
       id="path6350-6-2"
       d="m 40.67951,282.86941 c -0.18489,-0.005 -0.36929,0.0144 -0.55398,0.0223 -0.18454,0.0249 -0.37207,0.0338 -0.55283,0.0828 -0.0521,0.0141 -0.26522,0.0835 -0.3154,0.0996 -0.31781,0.0983 -0.6245,0.22832 -0.93331,0.35276 -0.16495,0.0645 -0.69839,0.36717 0.0208,-0.0444 0.0518,-0.0296 -0.10132,0.0632 -0.15243,0.094 -0.53125,0.32017 -0.4699,0.28352 -0.7989,0.47725 -0.47577,0.25223 -0.97181,0.45879 -1.46577,0.66827 -0.70186,0.31451 -1.37304,0.69972 -2.038,1.09035 0.0341,-0.0189 0.13471,-0.0786 0.10227,-0.0568 -0.95904,0.64538 0.1549,-0.13188 -0.7691,0.50633 -0.34251,0.23657 -0.67716,0.48466 -1.01108,0.73406 -0.36756,0.29216 -0.74892,0.56851 -1.09247,0.89197 -0.20621,0.19415 -0.24642,0.24751 -0.43194,0.4546 -0.24182,0.29026 -0.44428,0.61591 -0.60152,0.96336 -0.0886,0.19928 -0.10896,0.41483 -0.11775,0.63112 -0.002,0.12359 -0.0122,0.25065 0.0277,0.36983 0.0127,0.0379 0.0564,0.11952 0.0744,0.15461 0.0677,0.0957 0.15572,0.20797 0.27674,0.22903 0.0156,0.003 0.0316,-0.002 0.0473,-0.003 0.0155,-0.004 0.032,-0.005 0.0464,-0.0113 0.0142,-0.007 0.0248,-0.0198 0.0377,-0.0289 0.0139,-0.01 0.0576,-0.0361 0.0429,-0.0275 -0.15723,0.0919 -0.31048,0.19144 -0.47068,0.27759 -0.0224,0.012 0.0376,-0.0349 0.0548,-0.054 0.0191,-0.0213 0.0359,-0.0446 0.0539,-0.067 0.1078,-0.1737 0.19888,-0.35768 0.29268,-0.53973 0.12995,-0.32936 0.21003,-0.67617 0.32059,-1.01263 0.17282,-0.54885 0.44077,-1.06034 0.69476,-1.57195 0.53894,-1.12732 1.11158,-2.23662 1.67086,-3.35304 0.10917,-0.22198 0.21837,-0.44395 0.32752,-0.66594 0.0506,-0.10289 0.46747,-0.95386 0.54267,-1.09642 0.3018,-0.57215 0.63212,-1.1279 0.96403,-1.68131 0.52562,-0.87549 1.08044,-1.73303 1.68065,-2.55521 0.12533,-0.17169 0.25423,-0.34054 0.38134,-0.5108 0.65528,-0.86129 1.32929,-1.70766 2.02935,-2.52991 0.54721,-0.62406 1.08497,-1.26307 1.68268,-1.83643 0.12776,-0.12254 0.26104,-0.23873 0.39155,-0.35809 0.5602,-0.50889 1.18208,-0.93374 1.7762,-1.39635 0.35447,-0.27298 0.71744,-0.53228 1.10146,-0.75832 0.745,-0.43851 0.49279,-0.30936 0.97434,-0.54056 0.33014,-0.17708 0.66258,-0.3506 1.00901,-0.49057 0.20786,-0.0635 0.40465,-0.14663 0.61786,-0.18822 0.17951,-0.0299 0.36176,-0.0312 0.5431,-0.0332 0.0968,-0.003 0.20132,-0.002 0.2882,0.0506 0.0341,0.0206 0.10349,0.0883 0.12956,0.11247 0.14589,0.14171 0.2203,0.32342 0.26222,0.52223 0.0544,0.29097 -0.0603,0.55374 -0.1854,0.80677 -0.16423,0.26981 -0.37542,0.49864 -0.58758,0.72651 -0.17166,0.20448 -0.37773,0.36968 -0.58466,0.53271 -0.58177,0.45737 -1.22946,0.81473 -1.86182,1.18809 -0.97458,0.5076 -1.96614,0.98093 -2.96291,1.43927 -1.3949,0.60273 -2.78817,1.20993 -4.19183,1.7903 0,0 0.3931,-0.32156 0.3931,-0.32156 v 0 c 1.40193,-0.56895 2.78795,-1.17889 4.17698,-1.78089 1.01851,-0.4727 2.03073,-0.9621 3.02203,-1.49426 -0.0785,0.0497 -0.32211,0.18113 -0.23555,0.14906 0.0965,-0.0357 0.17754,-0.10621 0.26577,-0.16026 0.29472,-0.18054 0.58658,-0.36795 0.85684,-0.58684 0.20323,-0.16067 0.40915,-0.32087 0.57954,-0.52037 0.0931,-0.10117 0.19483,-0.19409 0.28462,-0.29851 0.11291,-0.13132 0.21174,-0.27528 0.31479,-0.4148 0.12455,-0.23719 0.24399,-0.4858 0.19326,-0.76352 -0.0354,-0.187 -0.10077,-0.35792 -0.24184,-0.48712 -0.0376,-0.0312 -0.0778,-0.0693 -0.12244,-0.0913 -0.0847,-0.0418 -0.18111,-0.0361 -0.27193,-0.0351 -0.17921,0.003 -0.35944,0.007 -0.53599,0.0422 -0.20543,0.0477 -0.4037,0.12499 -0.6042,0.19064 -0.3383,0.14126 -0.66481,0.31032 -0.99061,0.48003 -0.0828,0.0406 -0.20341,0.20499 -0.24845,0.12197 -0.045,-0.0829 0.31966,-0.17879 0.23169,-0.15286 -0.10355,0.0305 -0.188,0.10925 -0.28016,0.16715 -0.286,0.17968 -0.55349,0.38569 -0.82629,0.58579 -0.59922,0.47169 -1.23343,0.89463 -1.80525,1.40399 -0.12932,0.11788 -0.26147,0.23246 -0.38796,0.35362 -0.22654,0.21699 -0.45837,0.46735 -0.67283,0.69758 -0.34714,0.37262 -0.69048,0.74923 -1.0202,1.13875 -0.30295,0.359 -0.39359,0.46276 -0.68435,0.82113 -0.39557,0.48753 -0.25084,0.3194 -0.65729,0.82469 -0.1114,0.13849 -0.22661,0.27362 -0.33683,0.41311 -0.1231,0.1558 -0.24203,0.3151 -0.36305,0.47265 -0.3082,0.41617 -0.42639,0.57011 -0.72047,0.98879 -0.47387,0.67464 -0.9197,1.37044 -1.3507,2.07541 -0.25833,0.43871 -0.4056,0.68221 -0.64967,1.1212 -0.4233,0.76137 -0.81256,1.54237 -1.19875,2.32459 -0.53799,1.11054 -1.10568,2.20536 -1.61988,3.32843 -0.23615,0.50963 -0.4963,1.01161 -0.66762,1.55025 -0.0349,0.10782 -0.0902,0.27407 -0.12065,0.3852 -0.0174,0.0635 -0.0302,0.12815 -0.0472,0.19168 -0.0396,0.14743 -0.0913,0.29092 -0.13296,0.43766 -0.0963,0.1822 -0.18876,0.3666 -0.28661,0.54786 -0.17928,0.26047 -0.27017,0.24199 -0.64945,0.47877 -0.0467,0.0292 -0.0943,0.0423 -0.14885,0.0375 -0.15241,-0.0369 -0.26788,-0.14528 -0.35122,-0.28057 -0.0215,-0.0424 -0.0644,-0.12384 -0.0798,-0.16802 -0.0436,-0.12478 -0.0404,-0.25561 -0.0355,-0.38607 0.008,-0.22385 0.0238,-0.44873 0.11362,-0.65604 0.15992,-0.35854 0.37014,-0.69252 0.61865,-0.99137 0.18657,-0.2099 0.22884,-0.26575 0.43537,-0.46298 0.34395,-0.32845 0.72889,-0.60612 1.0993,-0.9003 0.83964,-0.62792 1.69777,-1.22998 2.60572,-1.74724 0.67092,-0.38953 1.34534,-0.77952 2.05257,-1.09339 0.4996,-0.21283 1.00136,-0.4243 1.47852,-0.68847 0.0332,-0.0196 0.72839,-0.42982 -0.19072,0.11816 -0.0519,0.0309 0.10233,-0.0641 0.15399,-0.0952 0.31993,-0.19286 0.62849,-0.40374 0.9734,-0.54368 0.30906,-0.12494 0.61738,-0.2515 0.93575,-0.3492 0.081,-0.0256 0.23968,-0.0772 0.32196,-0.0976 0.18366,-0.0455 0.37384,-0.0532 0.56055,-0.0771 0.18897,-0.0111 0.37765,-0.0297 0.56707,-0.0285 0,0 -0.48616,0.36787 -0.48616,0.36787 z"
       inkscape:connector-curvature="0" />
    <g
       aria-label="LALL"
       transform="scale(1.1635864,0.85941188)"
       style="font-style:normal;font-weight:normal;font-size:21.82906151px;line-height:1.25;font-family:sans-serif;text-align:start;letter-spacing:0px;word-spacing:0px;text-anchor:start;fill:#000000;fill-opacity:1;stroke:none;stroke-width:0.22738606"
       id="text6576">
      <path
         d="m 8.026479,321.54728 h 4.327441 v 8.64422 q 0,1.01258 0.319762,1.35366 0.33042,0.33042 1.289705,0.33042 h 0.223833 v 4.22086 h -1.151142 q -2.366236,0 -3.6879175,-1.37498 -1.3216815,-1.38563 -1.3216815,-3.83714 z"
         style="font-style:normal;font-variant:normal;font-weight:bold;font-stretch:normal;font-family:'Bauhaus 93';-inkscape-font-specification:'Bauhaus 93 Bold';stroke-width:0.22738606"
         id="path6580" />
      <path
         d="m 20.934191,328.79521 v 3.83714 H 19.68712 v 3.46409 h -4.327441 v -9.25177 q 0,-2.686 1.460245,-4.16756 1.470904,-1.49223 4.124926,-1.49223 2.558093,0 3.783846,1.35366 1.225753,1.343 1.225753,4.1569 v 9.401 h -4.327441 v -9.11321 q 0,-0.8527 -0.202516,-1.18312 -0.202516,-0.33042 -0.724793,-0.33042 -1.012579,0 -1.012579,1.51354 v 1.81198 z"
         style="font-style:normal;font-variant:normal;font-weight:bold;font-stretch:normal;font-family:'Bauhaus 93';-inkscape-font-specification:'Bauhaus 93 Bold';stroke-width:0.22738606"
         id="path6582" />
      <path
         d="m 28.278051,321.54728 h 4.327441 v 8.64422 q 0,1.01258 0.319761,1.35366 0.330421,0.33042 1.289706,0.33042 h 0.223833 v 4.22086 H 33.28765 q -2.366236,0 -3.687918,-1.37498 -1.321681,-1.38563 -1.321681,-3.83714 z"
         style="font-style:normal;font-variant:normal;font-weight:bold;font-stretch:normal;font-family:'Bauhaus 93';-inkscape-font-specification:'Bauhaus 93 Bold';stroke-width:0.22738606"
         id="path6584" />
      <path
         d="m 35.611249,321.54728 h 4.327441 v 8.64422 q 0,1.01258 0.319762,1.35366 0.33042,0.33042 1.289705,0.33042 h 0.223833 v 4.22086 h -1.151142 q -2.366236,0 -3.687917,-1.37498 -1.321682,-1.38563 -1.321682,-3.83714 z"
         style="font-style:normal;font-variant:normal;font-weight:bold;font-stretch:normal;font-family:'Bauhaus 93';-inkscape-font-specification:'Bauhaus 93 Bold';stroke-width:0.22738606"
         id="path6586" />
    </g>
    <path
       style="opacity:1;fill:#000000;fill-opacity:1;stroke:none;stroke-width:0.08371577;stroke-miterlimit:4;stroke-dasharray:none;paint-order:markers fill stroke"
       id="path6350-6-8"
       d="m 6.0164287,281.73145 c -3.914802,8.23168 11.1975273,4.76978 5.4382053,6.03666 24.334853,4.77041 -16.4324699,8.7881 -5.4382053,-6.03666 z"
       inkscape:connector-curvature="0"
       sodipodi:nodetypes="ccc" />
    <path
       style="opacity:1;fill:#000000;fill-opacity:1;stroke:none;stroke-width:0.08371602;stroke-miterlimit:4;stroke-dasharray:none;paint-order:markers fill stroke"
       id="path6350-6-8-7"
       d="m 52.785267,281.73128 c 3.914825,8.23168 -11.197594,4.76978 -5.438237,6.03666 -24.335003,4.77041 16.432568,8.7881 5.438237,-6.03666 z"
       inkscape:connector-curvature="0"
       sodipodi:nodetypes="ccc" />
    <g
       aria-label="LALL"
       transform="matrix(0.26458333,0,0,0.19541828,-29.255951,189.24365)"
       style="font-style:normal;font-weight:normal;font-size:96px;line-height:1.25;font-family:sans-serif;text-align:start;letter-spacing:0px;word-spacing:0px;text-anchor:start;fill:#a7ac93;fill-opacity:1;stroke:none"
       id="flowRoot3715-8">
      <path
         d="m 147.9668,448.20988 h 19.03125 v 38.01563 q 0,4.45312 1.40625,5.95312 1.45312,1.45313 5.67187,1.45313 h 0.98438 v 18.5625 h -5.0625 q -10.40625,0 -16.21875,-6.04688 -5.8125,-6.09375 -5.8125,-16.875 z"
         style="font-style:normal;font-variant:normal;font-weight:bold;font-stretch:normal;font-family:'Bauhaus 93';-inkscape-font-specification:'Bauhaus 93 Bold';fill:#a7ac93"
         id="path6589" />
      <path
         d="m 204.73242,480.08488 v 16.875 h -5.48437 v 15.23438 H 180.2168 v -40.6875 q 0,-11.8125 6.42187,-18.32813 6.46875,-6.5625 18.14063,-6.5625 11.25,0 16.64062,5.95313 5.39063,5.90625 5.39063,18.28125 v 41.34375 H 207.7793 v -40.07813 q 0,-3.75 -0.89063,-5.20312 -0.89062,-1.45313 -3.1875,-1.45313 -4.45312,0 -4.45312,6.65625 v 7.96875 z"
         style="font-style:normal;font-variant:normal;font-weight:bold;font-stretch:normal;font-family:'Bauhaus 93';-inkscape-font-specification:'Bauhaus 93 Bold';fill:#a7ac93"
         id="path6591" />
      <path
         d="m 237.0293,448.20988 h 19.03125 v 38.01563 q 0,4.45312 1.40625,5.95312 1.45312,1.45313 5.67187,1.45313 h 0.98438 v 18.5625 h -5.0625 q -10.40625,0 -16.21875,-6.04688 -5.8125,-6.09375 -5.8125,-16.875 z"
         style="font-style:normal;font-variant:normal;font-weight:bold;font-stretch:normal;font-family:'Bauhaus 93';-inkscape-font-specification:'Bauhaus 93 Bold';fill:#a7ac93"
         id="path6593" />
      <path
         d="m 269.2793,448.20988 h 19.03125 v 38.01563 q 0,4.45312 1.40625,5.95312 1.45312,1.45313 5.67187,1.45313 h 0.98438 v 18.5625 h -5.0625 q -10.40625,0 -16.21875,-6.04688 -5.8125,-6.09375 -5.8125,-16.875 z"
         style="font-style:normal;font-variant:normal;font-weight:bold;font-stretch:normal;font-family:'Bauhaus 93';-inkscape-font-specification:'Bauhaus 93 Bold';fill:#a7ac93"
         id="path6595" />
    </g>
    <path
       style="opacity:1;fill:#a7ac93;fill-opacity:1;stroke:none;stroke-width:0.08371577;stroke-miterlimit:4;stroke-dasharray:none;paint-order:markers fill stroke"
       id="path6350-6-8-2"
       d="m 6.5705207,282.22195 c -3.914802,8.23167 11.1975283,4.76977 5.4382053,6.03665 24.334852,4.77041 -16.4324699,8.7881 -5.4382053,-6.03665 z"
       inkscape:connector-curvature="0"
       sodipodi:nodetypes="ccc" />
    <path
       style="opacity:1;fill:#a7ac93;fill-opacity:1;stroke:none;stroke-width:0.08371602;stroke-miterlimit:4;stroke-dasharray:none;paint-order:markers fill stroke"
       id="path6350-6-8-7-0"
       d="m 53.339359,282.22178 c 3.91483,8.23167 -11.197593,4.76977 -5.43823,6.03665 -24.335009,4.77041 16.43257,8.7881 5.43823,-6.03665 z"
       inkscape:connector-curvature="0"
       sodipodi:nodetypes="ccc" />
  </g>
</svg>
